<svg xmlns="http://www.w3.org/2000/svg" width="1822" height="270" viewBox="0 0 1822 270"><rect width="100%" height="100%" fill="#DDDDDD"/><path fill="#999999" d="M614.575 171.315h17.55v12.49h-54v-12.49h19.77v-56.9q0-3.38.21-6.95l-14.04 11.74q-1.22.95-2.4 1.18-1.18.24-2.23.04-1.04-.21-1.85-.71-.81-.51-1.22-1.11l-5.26-7.23 29.77-25.31h13.7v85.25Zm65.14.54q4.11 0 7.22-1.18 3.1-1.18 5.23-3.27 2.13-2.1 3.21-5t1.08-6.28q0-8.03-4.46-12.15-4.45-4.11-12.28-4.11-7.83 0-12.29 4.11-4.45 4.12-4.45 12.15 0 3.38 1.08 6.28 1.08 2.9 3.2 5 2.13 2.09 5.23 3.27 3.11 1.18 7.23 1.18Zm0-74.18q-3.72 0-6.42 1.15-2.7 1.14-4.49 3.07-1.78 1.92-2.63 4.42-.84 2.5-.84 5.26 0 2.91.71 5.64.71 2.73 2.39 4.86 1.69 2.13 4.46 3.41 2.77 1.28 6.82 1.28 4.05 0 6.81-1.28 2.77-1.28 4.46-3.41t2.39-4.86q.71-2.73.71-5.64 0-2.76-.87-5.26-.88-2.5-2.64-4.42-1.75-1.93-4.45-3.07-2.7-1.15-6.41-1.15Zm16.47 35.23q8.91 2.91 13.16 8.88 4.25 5.97 4.25 14.61 0 6.48-2.46 11.75-2.47 5.26-6.92 8.98-4.46 3.71-10.7 5.73-6.24 2.03-13.8 2.03-7.56 0-13.81-2.03-6.24-2.02-10.7-5.73-4.45-3.72-6.92-8.98-2.46-5.27-2.46-11.75 0-8.64 4.25-14.61 4.26-5.97 13.17-8.88-7.09-2.97-10.64-8.43-3.54-5.47-3.54-13.17 0-5.53 2.26-10.32 2.26-4.8 6.31-8.34t9.69-5.53q5.64-2 12.39-2 6.75 0 12.38 2 5.64 1.99 9.69 5.53t6.31 8.34q2.26 4.79 2.26 10.32 0 7.7-3.54 13.17-3.55 5.46-10.63 8.43Zm63.85 35.37h25.04q2.7 0 4.29 1.52 1.59 1.52 1.59 4.02v9.99h-66.96v-5.54q0-1.68.7-3.54.71-1.86 2.27-3.34l29.63-29.7q3.71-3.78 6.65-7.22 2.93-3.45 4.89-6.82 1.96-3.38 3-6.85 1.05-3.48 1.05-7.33 0-3.5-1.01-6.17t-2.87-4.49q-1.86-1.82-4.46-2.73-2.59-.92-5.83-.92-2.97 0-5.51.85-2.53.84-4.48 2.36-1.96 1.52-3.31 3.54-1.35 2.03-2.03 4.46-1.14 3.1-2.97 4.12-1.82 1.01-5.26.47l-8.78-1.55q1.02-7.02 3.92-12.32 2.9-5.3 7.25-8.84 4.36-3.55 9.99-5.34 5.64-1.79 12.12-1.79 6.75 0 12.35 2 5.61 1.99 9.59 5.63 3.98 3.65 6.21 8.78 2.23 5.13 2.23 11.4 0 5.4-1.59 9.99t-4.25 8.78q-2.67 4.18-6.25 8.1-3.57 3.91-7.49 7.96l-22 22.48q3.17-.94 6.31-1.45 3.14-.51 5.97-.51Zm78.3 0h25.04q2.7 0 4.29 1.52 1.59 1.52 1.59 4.02v9.99h-66.96v-5.54q0-1.68.7-3.54.71-1.86 2.27-3.34l29.63-29.7q3.71-3.78 6.65-7.22 2.93-3.45 4.89-6.82 1.96-3.38 3-6.85 1.05-3.48 1.05-7.33 0-3.5-1.01-6.17t-2.87-4.49q-1.86-1.82-4.46-2.73-2.59-.92-5.83-.92-2.97 0-5.51.85-2.53.84-4.48 2.36-1.96 1.52-3.31 3.54-1.35 2.03-2.03 4.46-1.14 3.1-2.97 4.12-1.82 1.01-5.26.47l-8.78-1.55q1.02-7.02 3.92-12.32 2.9-5.3 7.25-8.84 4.36-3.55 9.99-5.34 5.64-1.79 12.12-1.79 6.75 0 12.35 2 5.61 1.99 9.59 5.63 3.98 3.65 6.21 8.78 2.23 5.13 2.23 11.4 0 5.4-1.59 9.99t-4.25 8.78q-2.67 4.18-6.25 8.1-3.57 3.91-7.49 7.96l-22 22.48q3.17-.94 6.31-1.45 3.14-.51 5.97-.51Zm140.94-6.81-8.84 8.7-22.88-22.88-23.09 23.02-8.84-8.71 23.08-23.15-22-22.01 8.77-8.77 22.01 22 21.87-21.87 8.91 8.78-21.94 21.94 22.95 22.95Zm81.27 6.81h25.04q2.7 0 4.29 1.52 1.59 1.52 1.59 4.02v9.99h-66.96v-5.54q0-1.68.7-3.54.71-1.86 2.27-3.34l29.63-29.7q3.71-3.78 6.65-7.22 2.93-3.45 4.89-6.82 1.96-3.38 3-6.85 1.05-3.48 1.05-7.33 0-3.5-1.01-6.17t-2.87-4.49q-1.86-1.82-4.46-2.73-2.59-.92-5.83-.92-2.97 0-5.51.85-2.53.84-4.48 2.36-1.96 1.52-3.31 3.54-1.35 2.03-2.03 4.46-1.14 3.1-2.97 4.12-1.82 1.01-5.26.47l-8.78-1.55q1.02-7.02 3.92-12.32 2.9-5.3 7.25-8.84 4.36-3.55 9.99-5.34 5.64-1.79 12.12-1.79 6.75 0 12.35 2 5.61 1.99 9.59 5.63 3.98 3.65 6.21 8.78 2.23 5.13 2.23 11.4 0 5.4-1.59 9.99t-4.25 8.78q-2.67 4.18-6.25 8.1-3.57 3.91-7.49 7.96l-22 22.48q3.17-.94 6.31-1.45 3.14-.51 5.97-.51Zm43.4-82.08h67.44v7.23q0 3.24-.68 5.23-.67 1.99-1.35 3.34l-36.99 76.14q-1.15 2.36-3.24 4.02-2.09 1.65-5.6 1.65h-12.08l37.73-74.59q1.28-2.29 2.53-4.22 1.25-1.92 2.8-3.67h-46.71q-1.55 0-2.7-1.15-1.15-1.15-1.15-2.7v-11.28Zm146.95 48.81q0 12.75-2.73 22.17-2.74 9.42-7.56 15.56-4.83 6.14-11.41 9.15-6.58 3-14.21 3-7.63 0-14.14-3-6.51-3.01-11.31-9.15-4.79-6.14-7.49-15.56-2.7-9.42-2.7-22.17 0-12.83 2.7-22.21t7.49-15.53q4.8-6.14 11.31-9.14 6.51-3.01 14.14-3.01 7.63 0 14.21 3.01 6.58 3 11.41 9.14 4.82 6.15 7.56 15.53 2.73 9.38 2.73 22.21Zm-17.21 0q0-10.6-1.55-17.55-1.56-6.96-4.16-11.07-2.59-4.12-5.97-5.77-3.37-1.66-7.02-1.66-3.58 0-6.92 1.66-3.34 1.65-5.9 5.77-2.57 4.11-4.09 11.07-1.52 6.95-1.52 17.55 0 10.59 1.52 17.55 1.52 6.95 4.09 11.07 2.56 4.11 5.9 5.77 3.34 1.65 6.92 1.65 3.65 0 7.02-1.65 3.38-1.66 5.97-5.77 2.6-4.12 4.16-11.07 1.55-6.96 1.55-17.55Z"/></svg>